<svg width="16.000000" height="16.000000" viewBox="0 0 16 16" fill="none" xmlns="http://www.w3.org/2000/svg" xmlns:xlink="http://www.w3.org/1999/xlink">
	<desc>
			Created with Pixso.
	</desc>
	<defs>
		<clipPath id="clip16_8404">
			<rect id="Property 1=jam_plus" width="16.000000" height="16.000000" fill="white" fill-opacity="0"/>
		</clipPath>
	</defs>
	<g clip-path="url(#clip16_8404)">
		<path id="path" d="M7.93323 6.6001L7.93323 3.26685C7.93323 2.82227 7.71106 2.6001 7.2666 2.6001C6.82214 2.6001 6.59998 2.82227 6.59998 3.26685L6.59998 6.6001L3.2666 6.6001C2.8219 6.59985 2.59949 6.82202 2.59949 7.26685C2.59949 7.71143 2.8219 7.93384 3.2666 7.93335L6.59998 7.93335L6.59998 11.2668C6.59998 11.7112 6.82214 11.9333 7.2666 11.9333C7.71106 11.9333 7.93323 11.7112 7.93323 11.2668L7.93323 7.93335L11.2666 7.93335C11.7111 7.93335 11.9332 7.71118 11.9332 7.26685C11.9332 6.82227 11.7111 6.6001 11.2666 6.6001L7.93323 6.6001Z" fill="#000000" fill-opacity="1.000000" fill-rule="nonzero"/>
	</g>
</svg>
