<svg width="28.000000" height="28.000000" viewBox="0 0 28 28" fill="none" xmlns="http://www.w3.org/2000/svg" xmlns:xlink="http://www.w3.org/1999/xlink">
	<desc>
			Created with Pixso.
	</desc>
	<defs>
		<clipPath id="clip117_348">
			<rect id="akar-icons:search" width="28.000000" height="28.000000" fill="white" fill-opacity="0"/>
		</clipPath>
	</defs>
	<rect id="akar-icons:search" width="28.000000" height="28.000000" fill="#FFFFFF" fill-opacity="0"/>
	<g clip-path="url(#clip117_348)">
		<path id="Vector" d="M24.5 24.5L19.2664 19.257M19.2622 19.2621C17.4024 21.1219 14.8801 22.1666 12.25 22.1666C9.62 22.1666 7.09766 21.1219 5.23792 19.2621C3.37817 17.4024 2.33337 14.8801 2.33337 12.25C2.33337 9.61993 3.37817 7.0976 5.23792 5.23785C7.09766 3.37811 9.62 2.33331 12.25 2.33331C14.8801 2.33331 17.4024 3.37811 19.2622 5.23785C21.1219 7.0976 22.1667 9.61993 22.1667 12.25C22.1667 14.8801 21.1219 17.4024 19.2622 19.2621Z" stroke="#000000" stroke-opacity="1.000000" stroke-width="2.000000" stroke-linecap="round"/>
	</g>
</svg>
